<mxfile host="app.diagrams.net" modified="2023-10-26T08:16:29.722Z" agent="Mozilla/5.0 (Macintosh; Intel Mac OS X 10_15_7) AppleWebKit/537.36 (KHTML, like Gecko) Chrome/118.0.0.0 Safari/537.36" version="21.6.6" etag="zHtHfyq6j_Ei-lwS5nzH" type="github">
  <diagram name="Page-1" id="39jU-sOxqGQU60OgBB_P">
    <mxGraphModel>
      <root>
        <mxCell id="0" />
        <mxCell id="1" parent="0" />
      </root>
    </mxGraphModel>
  </diagram>
</mxfile>
